<mxfile host="app.diagrams.net" modified="2020-09-29T03:18:17.610Z" agent="5.0 (Macintosh; Intel Mac OS X 10_14_3) AppleWebKit/537.36 (KHTML, like Gecko) Chrome/85.0.4183.102 Safari/537.36" etag="8xdbH-AEol_WR3E0mJXp" version="13.6.6" type="github">
  <diagram id="DEHFF9japbgy6FtzDHm2" name="Page-1">
    <mxGraphModel dx="1426" dy="914" grid="1" gridSize="10" guides="1" tooltips="1" connect="1" arrows="1" fold="1" page="1" pageScale="1" pageWidth="827" pageHeight="1169" math="0" shadow="0">
      <root>
        <mxCell id="0" />
        <mxCell id="1" parent="0" />
        <mxCell id="z-vT2b0F5gpx9fqrRq_2-2" value="" style="rounded=0;whiteSpace=wrap;html=1;fillColor=#d5e8d4;strokeColor=#82b366;" parent="1" vertex="1">
          <mxGeometry x="172" y="170" width="120" height="260" as="geometry" />
        </mxCell>
        <mxCell id="z-vT2b0F5gpx9fqrRq_2-3" value="" style="rounded=0;whiteSpace=wrap;html=1;fillColor=#e1d5e7;strokeColor=#9673a6;" parent="1" vertex="1">
          <mxGeometry x="342" y="170" width="120" height="260" as="geometry" />
        </mxCell>
        <mxCell id="z-vT2b0F5gpx9fqrRq_2-4" value="" style="rounded=0;whiteSpace=wrap;html=1;fillColor=#dae8fc;strokeColor=#6c8ebf;" parent="1" vertex="1">
          <mxGeometry x="512" y="170" width="120" height="260" as="geometry" />
        </mxCell>
        <mxCell id="z-vT2b0F5gpx9fqrRq_2-5" value="visitField" style="rounded=0;whiteSpace=wrap;html=1;fillColor=#ffe6cc;strokeColor=#d79b00;fontColor=#660000;" parent="1" vertex="1">
          <mxGeometry x="282" y="250" width="250" height="40" as="geometry" />
        </mxCell>
        <mxCell id="z-vT2b0F5gpx9fqrRq_2-6" value="visitMethod" style="rounded=0;whiteSpace=wrap;html=1;fillColor=#ffe6cc;strokeColor=#d79b00;fontColor=#660000;" parent="1" vertex="1">
          <mxGeometry x="282" y="310" width="250" height="40" as="geometry" />
        </mxCell>
        <mxCell id="z-vT2b0F5gpx9fqrRq_2-7" value="visit&amp;lt;...&amp;gt;" style="rounded=0;whiteSpace=wrap;html=1;fillColor=#ffe6cc;strokeColor=#d79b00;fontColor=#660000;" parent="1" vertex="1">
          <mxGeometry x="282" y="370" width="250" height="40" as="geometry" />
        </mxCell>
        <mxCell id="z-vT2b0F5gpx9fqrRq_2-8" value="ClassReader" style="text;html=1;strokeColor=none;fillColor=none;align=center;verticalAlign=middle;whiteSpace=wrap;rounded=0;fontStyle=1;fontColor=#FF0000;" parent="1" vertex="1">
          <mxGeometry x="212" y="180" width="40" height="20" as="geometry" />
        </mxCell>
        <mxCell id="z-vT2b0F5gpx9fqrRq_2-9" value="ClassVisitor" style="text;html=1;strokeColor=none;fillColor=none;align=center;verticalAlign=middle;whiteSpace=wrap;rounded=0;fontStyle=1;fontColor=#FF0000;" parent="1" vertex="1">
          <mxGeometry x="387" y="180" width="40" height="20" as="geometry" />
        </mxCell>
        <mxCell id="z-vT2b0F5gpx9fqrRq_2-10" value="ClassWrite" style="text;html=1;strokeColor=none;fillColor=none;align=center;verticalAlign=middle;whiteSpace=wrap;rounded=0;fontStyle=1;fontColor=#FF0000;" parent="1" vertex="1">
          <mxGeometry x="552" y="180" width="40" height="20" as="geometry" />
        </mxCell>
        <mxCell id="z-vT2b0F5gpx9fqrRq_2-11" value="event producer" style="text;html=1;strokeColor=none;fillColor=none;align=center;verticalAlign=middle;whiteSpace=wrap;rounded=0;fontColor=#FF6666;" parent="1" vertex="1">
          <mxGeometry x="187" y="200" width="90" height="20" as="geometry" />
        </mxCell>
        <mxCell id="z-vT2b0F5gpx9fqrRq_2-12" value="event filter" style="text;html=1;strokeColor=none;fillColor=none;align=center;verticalAlign=middle;whiteSpace=wrap;rounded=0;fontColor=#FF6666;" parent="1" vertex="1">
          <mxGeometry x="357" y="200" width="90" height="20" as="geometry" />
        </mxCell>
        <mxCell id="z-vT2b0F5gpx9fqrRq_2-13" value="event consumer" style="text;html=1;strokeColor=none;fillColor=none;align=center;verticalAlign=middle;whiteSpace=wrap;rounded=0;fontColor=#FF6666;" parent="1" vertex="1">
          <mxGeometry x="527" y="200" width="90" height="20" as="geometry" />
        </mxCell>
        <mxCell id="z-vT2b0F5gpx9fqrRq_2-14" value="" style="endArrow=classic;html=1;fontColor=#660000;entryX=0;entryY=0.5;entryDx=0;entryDy=0;" parent="1" target="z-vT2b0F5gpx9fqrRq_2-2" edge="1">
          <mxGeometry width="50" height="50" relative="1" as="geometry">
            <mxPoint x="92" y="300" as="sourcePoint" />
            <mxPoint x="172" y="290" as="targetPoint" />
          </mxGeometry>
        </mxCell>
        <mxCell id="z-vT2b0F5gpx9fqrRq_2-15" value="Class A" style="edgeLabel;html=1;align=center;verticalAlign=middle;resizable=0;points=[];fontColor=#660000;" parent="z-vT2b0F5gpx9fqrRq_2-14" vertex="1" connectable="0">
          <mxGeometry y="3" relative="1" as="geometry">
            <mxPoint as="offset" />
          </mxGeometry>
        </mxCell>
        <mxCell id="z-vT2b0F5gpx9fqrRq_2-16" value="" style="endArrow=classic;html=1;fontColor=#660000;exitX=1;exitY=0.5;exitDx=0;exitDy=0;" parent="1" source="z-vT2b0F5gpx9fqrRq_2-4" edge="1">
          <mxGeometry width="50" height="50" relative="1" as="geometry">
            <mxPoint x="642" y="290" as="sourcePoint" />
            <mxPoint x="712" y="300" as="targetPoint" />
          </mxGeometry>
        </mxCell>
        <mxCell id="z-vT2b0F5gpx9fqrRq_2-17" value="Class B" style="edgeLabel;html=1;align=center;verticalAlign=middle;resizable=0;points=[];fontColor=#660000;" parent="z-vT2b0F5gpx9fqrRq_2-16" vertex="1" connectable="0">
          <mxGeometry y="3" relative="1" as="geometry">
            <mxPoint as="offset" />
          </mxGeometry>
        </mxCell>
      </root>
    </mxGraphModel>
  </diagram>
</mxfile>
